<svg version="1.1" id="Layer_1" xmlns="http://www.w3.org/2000/svg" xmlns:xlink="http://www.w3.org/1999/xlink" x="0px" y="0px"
	 width="100%" viewBox="0 0 880 1024" enable-background="new 0 0 880 1024" xml:space="preserve">
<path fill="#000000" opacity="1.000000" stroke="none" 
	d="
M568.040039,916.888184 
	C579.216797,917.814758 589.655090,915.982361 599.274536,911.777039 
	C612.824524,905.853455 619.332092,895.763611 612.172302,881.199463 
	C607.853638,872.414795 603.346924,863.825378 596.902466,856.257141 
	C593.736816,852.539429 592.492676,847.421387 591.697205,842.460449 
	C589.809937,830.690369 591.176880,819.014893 595.267761,808.105530 
	C598.862671,798.518616 604.871765,789.997559 611.892456,782.286438 
	C621.488892,771.745911 618.221130,764.680359 608.750549,755.514587 
	C604.949951,751.836243 599.552734,750.587341 594.343750,749.106689 
	C587.568909,747.181030 580.617920,745.700623 574.252197,742.179199 
	C569.969543,739.809998 564.854126,738.955383 560.125549,737.380432 
	C554.440674,735.487061 549.046875,733.097229 544.075134,729.601257 
	C539.175659,726.156189 537.916382,721.757629 538.874695,716.198120 
	C541.051636,703.568726 545.301453,699.507812 557.667542,696.470154 
	C563.573608,695.019348 569.250000,692.358948 574.781372,689.723694 
	C582.494812,686.048767 590.983704,684.945801 598.862061,681.826843 
	C607.687378,678.332947 616.087646,674.076599 621.198608,665.895935 
	C625.023743,659.773438 623.786072,652.573608 621.359741,646.167358 
	C616.593872,633.584106 608.356995,623.102051 599.647339,613.035095 
	C591.397461,603.499695 589.544983,592.927063 593.591125,581.057739 
	C594.932190,577.123657 597.952026,574.717163 600.290344,571.636841 
	C610.066223,558.758911 625.790771,551.793030 633.601624,536.995972 
	C639.837341,525.183105 639.588501,514.292358 631.599731,503.491882 
	C625.764954,495.603455 618.895935,488.691132 612.132751,481.640717 
	C604.678955,473.870270 597.684143,465.628235 589.618347,458.487579 
	C579.927307,449.907990 569.585327,442.104309 560.065491,433.279633 
	C550.101990,424.043671 545.963684,412.348999 544.915466,399.564117 
	C543.449341,381.683594 545.565918,364.059143 551.133545,346.877136 
	C553.984985,338.077332 556.617004,329.169525 558.660950,320.154724 
	C561.021423,309.744080 559.972351,298.898376 561.718506,288.399628 
	C565.480652,265.779816 562.677612,243.198395 561.431030,220.641815 
	C561.064331,214.007812 558.854919,207.389008 557.061951,200.813217 
	C554.766174,192.393265 553.638489,183.570526 551.754944,174.964813 
	C549.798584,166.026138 547.001648,157.461212 542.863831,149.240692 
	C539.374512,142.308548 536.694824,134.968857 533.657776,127.809135 
	C533.207581,126.747826 533.045715,125.375252 532.273193,124.667877 
	C520.596436,113.975410 510.486633,101.381302 495.601929,94.558327 
	C492.527100,93.148865 489.380859,92.246567 486.116455,91.570442 
	C484.822784,91.302490 483.431335,91.169952 482.285828,90.582809 
	C477.876282,88.322723 475.724121,83.607742 477.211304,79.842850 
	C478.794098,75.835922 483.741882,74.112686 489.266357,76.130089 
	C504.598694,81.729111 518.973877,89.188126 531.625061,99.582771 
	C535.860840,103.063034 539.107178,107.633636 541.578186,112.594017 
	C545.775757,121.020210 549.893494,129.487198 553.952148,137.981308 
	C559.307617,149.189240 564.934692,160.333420 567.369568,172.638077 
	C571.936157,195.715591 577.003235,218.641769 578.296082,242.334152 
	C579.587341,265.999390 579.728638,289.447174 576.706848,312.995087 
	C575.622192,321.447113 573.512024,329.634277 572.187012,338.000702 
	C571.498413,342.348999 569.552917,346.511932 568.055298,350.715881 
	C563.098938,364.628723 560.750183,378.982452 561.391479,393.710236 
	C561.732422,401.540588 563.275269,409.426727 568.581970,415.498505 
	C572.470947,419.948181 577.567810,423.325623 582.002197,427.318726 
	C591.110229,435.520477 601.517517,442.226990 609.330811,451.933685 
	C620.648132,465.993530 634.426025,477.906555 645.184692,492.464661 
	C657.752136,509.470306 659.667969,527.852478 649.106201,547.561462 
	C642.487732,559.911987 631.111145,567.296997 621.805847,576.859314 
	C618.140198,580.626282 614.437073,584.552551 611.742371,589.006104 
	C609.627808,592.500977 611.477783,596.398865 613.871521,599.617737 
	C621.781128,610.253723 630.184875,620.645752 636.046814,632.550232 
	C640.114685,640.811401 643.232544,649.567444 643.461487,659.200500 
	C643.659607,667.533142 640.682007,674.245117 636.107727,680.828247 
	C630.218018,689.304443 623.249390,696.826721 614.011719,701.175232 
	C600.734558,707.425171 587.102905,713.106079 572.378052,715.319092 
	C571.774902,715.409729 571.199219,715.683716 569.734802,716.153076 
	C574.961975,718.564636 579.695129,718.532959 584.417419,718.737915 
	C594.898438,719.192810 605.001892,721.299988 613.401917,727.949402 
	C621.578003,734.421631 629.746277,741.374756 633.869141,751.144226 
	C638.155273,761.300659 638.902344,772.065674 634.274048,782.651306 
	C631.379761,789.270935 627.212158,794.921997 622.468689,800.362976 
	C613.086853,811.124634 609.248352,824.105896 612.482422,837.841736 
	C614.640137,847.006042 619.650635,855.474060 624.865784,863.615479 
	C632.347168,875.294983 635.448364,888.135132 632.465515,902.004761 
	C628.613525,919.916138 616.068665,928.607788 599.343384,932.138672 
	C583.775879,935.425171 568.116943,938.484497 552.085876,938.525146 
	C548.761230,938.533630 545.436096,938.374146 542.111572,938.386475 
	C529.461426,938.433289 516.829224,938.316711 504.165771,939.039917 
	C486.356323,940.057068 468.599121,937.771484 450.817139,936.807068 
	C429.798828,935.667175 409.546722,930.899536 389.219421,926.061523 
	C375.361206,922.763123 361.421112,919.791321 347.410461,917.109009 
	C337.700562,915.250122 328.393127,911.480713 319.128998,907.794495 
	C310.816711,904.486938 302.100342,902.235291 293.915588,898.486450 
	C287.717957,895.647705 282.437561,891.329346 276.204407,888.463379 
	C264.611969,883.133240 253.143570,877.417847 242.112030,871.020508 
	C233.552338,866.056641 225.920715,859.732910 218.745819,852.664917 
	C210.592575,844.633240 202.053986,836.962646 194.269928,828.551147 
	C190.379349,824.346985 185.208893,821.108948 183.518143,815.106812 
	C182.653198,812.036316 181.506454,808.888916 184.185760,806.216370 
	C186.756119,803.652466 189.296448,805.523071 191.971741,806.472839 
	C200.478073,809.492798 206.459320,815.789062 211.913193,822.370483 
	C218.930511,830.838562 227.270340,837.864868 235.129898,845.410889 
	C243.843552,853.776917 254.589722,859.067505 265.065155,864.858215 
	C276.362946,871.103455 288.411987,875.809875 299.419739,882.678528 
	C306.871124,887.328125 315.661957,889.303589 324.069336,891.852966 
	C328.232574,893.115540 331.626373,895.923279 335.919342,896.985657 
	C348.168488,900.016785 360.451141,902.998840 372.511108,906.685425 
	C386.651764,911.008179 401.451508,912.101990 415.637482,916.258423 
	C421.412384,917.950500 427.832275,916.783386 433.974152,917.797058 
	C456.937836,921.587402 480.121185,920.507385 503.191833,919.498352 
	C524.641479,918.560059 546.143250,918.849426 568.040039,916.888184 
z"/>
</svg>